<svg id="OBJECTS" xmlns="http://www.w3.org/2000/svg" viewBox="0 0 407.813 407.813"><defs><style>.cls-1{fill:#fff361;}</style></defs><title>2</title><circle class="cls-1" cx="247.398" cy="235.602" r="203.907" transform="translate(-137.626 212.247) rotate(-45)"/><path d="M183.772,175.959c0,22.875-7.132,41.419-15.93,41.419s-15.93-18.544-15.93-41.419,7.132-41.418,15.93-41.418S183.772,153.085,183.772,175.959Z" transform="translate(-43.491 -31.696)"/><path d="M332.878,175.959c0,22.875-7.131,41.419-15.93,41.419s-15.93-18.544-15.93-41.419,7.132-41.418,15.93-41.418S332.878,153.085,332.878,175.959Z" transform="translate(-43.491 -31.696)"/><path d="M247.739,323.826c-59.718,0-94.489-45.784-95.941-47.737l11.961-8.9-5.981,4.45,5.971-4.464c.313.418,31.924,41.737,83.99,41.737,52.017,0,82.959-41.261,83.265-41.679l12.039,8.8C341.619,277.983,307.505,323.826,247.739,323.826Z" transform="translate(-43.491 -31.696)"/></svg>